<svg id="Grupo_132" data-name="Grupo 132" xmlns="http://www.w3.org/2000/svg" xmlns:xlink="http://www.w3.org/1999/xlink" width="278.554" height="389.108" viewBox="0 0 278.554 389.108">
  <defs>
    <clipPath id="clip-path">
      <rect id="Retângulo_186" data-name="Retângulo 186" width="278.554" height="389.109" fill="#d76340"/>
    </clipPath>
  </defs>
  <g id="Grupo_13" data-name="Grupo 13" clip-path="url(#clip-path)">
    <path id="Caminho_6844" data-name="Caminho 6844" d="M174.107,314.829c0,.666.05,1.5-.015,2.322a1.362,1.362,0,0,0,.895,1.453,207.2,207.2,0,0,0,25.323,11.976c7.567,2.954,13.006,8.286,17.027,15.242,5.288,9.15,8.891,18.989,12.041,29.02.853,2.717,1.74,5.43,2.426,8.19a4.924,4.924,0,0,1-4.581,6.058c-.356.025-.715.018-1.072.018q-76.382,0-152.763-.02a7.927,7.927,0,0,1-3.009-.493,4.437,4.437,0,0,1-2.427-5.943q3.407-9.675,6.958-19.3a100.821,100.821,0,0,1,8.024-16.409,33.816,33.816,0,0,1,18.7-15.524c3.9-1.315,7.824-2.56,11.706-3.926a11.607,11.607,0,0,0,2.963-1.627c4.088-3.011,8.133-6.079,12.185-9.14.776-.586,1.51-1.229,2.5-2.042-2.155-.326-3.982-.547-5.787-.886-4.554-.854-9.092-1.794-13.65-2.63a39.069,39.069,0,0,0-5.061-.6,110.629,110.629,0,0,1-18.651-2.978A96.675,96.675,0,0,1,65,299.646a65.429,65.429,0,0,1-18.612-13.665,6.654,6.654,0,0,0-3.909-2.037c-11.366-2.354-20.517-7.863-25.869-18.589a25.183,25.183,0,0,1-2.716-15.9,1.48,1.48,0,0,0-.168-1.1c-2.063-2.2-2.845-5-3.62-7.781-1.054-3.787-1.593-7.6-.324-11.472a1.8,1.8,0,0,0-.467-1.323A59.587,59.587,0,0,1,.905,212.805,12.15,12.15,0,0,1,.992,203.4c1.507-3.611,1.758-7.356,1.96-11.16a120.028,120.028,0,0,1,3.491-22.5,141.319,141.319,0,0,1,11.336-30.9,6.7,6.7,0,0,0,.7-2.706c.138-3.333,1.768-5.943,3.821-8.377a13.608,13.608,0,0,1,1.118-1.236,20.3,20.3,0,0,0,4.813-6.722c.385-.865.9-1.669,1.4-2.568-.989-.822-2.007-1.623-2.976-2.48A55.739,55.739,0,0,1,14.182,99.858a25.1,25.1,0,0,1-3.2-12.508,114.8,114.8,0,0,1,1.994-20.089c.789-4.234,3.041-7.673,5.376-11.141A40.786,40.786,0,0,0,21.761,49.9a40.32,40.32,0,0,1,5.556-9.237,2.719,2.719,0,0,0,.647-1.346c.433-4.784,3.09-8.136,7.078-10.368,3.652-2.044,7.539-3.665,11.3-5.509,2.1-1.027,4.13-2.185,6.245-3.172,1.067-.5,2.273-.689,3.371-1.132a2.02,2.02,0,0,0,1.091-1.007,9.1,9.1,0,0,1,2.831-4.187c2.124-1.723,4.286-3.407,6.512-4.995,2.635-1.88,5.815-2.206,8.869-2.85C79.641,5.182,84.048,4.392,88.4,3.36c3-.711,5.875-1.966,8.888-2.569,5.321-1.066,10.8-1.446,15.665,1.409,5.772,3.384,12.243,4.42,18.48,6.224a78.816,78.816,0,0,1,24.064,11.6c3.993,2.847,7.122,6.432,7.963,11.409.444,2.631.223,5.37.376,8.055a5.451,5.451,0,0,0,.556,2.341,39.235,39.235,0,0,1,5.129,18.469c.032.9-.358,2.041.06,2.646s1.613.685,2.458,1.016a9.282,9.282,0,0,1,1.738.761c4.185,2.745,8.948,4.167,13.532,6.01,5.951,2.392,11.851,4.912,17.787,7.344A56.61,56.61,0,0,1,225.238,92.3c5.377,5.792,10.717,11.6,14.923,18.352a7.968,7.968,0,0,0,2.661,2.279,66.317,66.317,0,0,1,12.838,9.606,62.144,62.144,0,0,1,16.24,28.6c1.378,5.315,3,10.578,4.788,15.773a30.167,30.167,0,0,1,.176,20.388,57.766,57.766,0,0,0-3.019,12.54c-.681,5.857-3.1,11.192-5.762,16.393-.864,1.689-1.938,3.27-2.862,4.93a1.107,1.107,0,0,0,.049.989c3.373,4.358,4.13,9.367,3.562,14.648-1.3,12.06-7.85,20.814-17.57,27.5a4.241,4.241,0,0,0-1.705,2.156c-4.345,11.835-12.1,21.011-22.3,28.193-11.409,8.035-24.129,13.215-37.57,16.684-5.087,1.313-10.256,2.306-15.578,3.487m56.144-132.994.18-.2a5.536,5.536,0,0,0-.51-.687c-1.464-1.456-2.9-2.946-4.418-4.341a141.541,141.541,0,0,0-27.213-19.515c-9.814-5.439-19.829-10.216-31.438-10.611a112.664,112.664,0,0,0-20.065.76,79.807,79.807,0,0,0-27.939,9.591,99.142,99.142,0,0,0-26.24,21.783c-5.663,6.53-10.127,13.892-14.447,21.341A157.433,157.433,0,0,1,65.8,218.982a5.848,5.848,0,0,0-1.1,2.2c-.937,3.965-1.868,7.934-2.646,11.932a65.835,65.835,0,0,0,.122,26.592,48.588,48.588,0,0,0,21.176,31.28c8.871,5.949,18.7,9.639,28.956,12.287a172.328,172.328,0,0,0,35.837,5.1,130.435,130.435,0,0,0,45.639-6.053c12.393-3.96,24.134-9.25,34.14-17.789,8.1-6.911,13.693-15.411,16.087-25.9,2.016-8.835,2.322-17.847,2.742-26.831a117.946,117.946,0,0,0-1.155-24.941c-.932-5.593-3.4-10.229-8.608-13.116a48.34,48.34,0,0,0-27.808-6.1c-1.5.118-3,.261-4.509.337a3.467,3.467,0,0,1-3.524-2.15,7.423,7.423,0,0,1-.679-2.139c-.682-5.133,1.008-8.866,7.063-8.913a37.219,37.219,0,0,1,21.144,6.139c.51.333,1.051.618,1.577.925M9.662,204.9a127.707,127.707,0,0,1,16.154-19.826A340.737,340.737,0,0,1,51.6,161.4c7.908-6.692,15.9-13.276,24.405-19.208a42.24,42.24,0,0,1,4.744-2.919,3.4,3.4,0,0,1,4.206,1.222,3.078,3.078,0,0,1-.512,4.094,13.463,13.463,0,0,1-1.543,1.3c-5.109,3.892-10.351,7.623-15.308,11.7Q56.608,166.63,45.956,176.07A199.552,199.552,0,0,0,19.94,203.007a65.578,65.578,0,0,0-7.821,12.456,2.394,2.394,0,0,0,.039,2.372c.787,1.374,1.647,2.711,2.356,4.124.494.984,1.027,1.029,1.962.611a210.437,210.437,0,0,0,26.318-13.726A249.427,249.427,0,0,0,85.52,174.382c6.511-6.459,13-12.931,20.5-18.3a90.433,90.433,0,0,1,30.492-14.534,78.494,78.494,0,0,1,24.761-2.484c.93.063,1.855.193,3.168.332-.806-1.192-1.412-2.095-2.025-2.993a42.677,42.677,0,0,0-20.53-15.953c-13.071-5.021-26.447-4.891-39.946-2.212a124.564,124.564,0,0,0-20.722,6.408c-7.268,2.819-14.474,5.8-21.774,8.53a67.278,67.278,0,0,1-19.209,4.163A29.5,29.5,0,0,1,27.3,135.722c-5.582,11.9-10.834,23.834-13.807,36.638-2.466,10.62-3.241,21.426-3.835,32.538M87.4,78.24c.167.269.206.4.295.461.4.264.808.5,1.21.757,11.981,7.6,21.838,17.445,30.277,28.775a1.755,1.755,0,0,0,1.538.827,67.69,67.69,0,0,1,23.36,4.363c3.583,1.428,7,3.268,10.579,4.961,7.3-7.128,10.4-9.213,19.6-13.258a2.017,2.017,0,0,0,.966-1.277,47.516,47.516,0,0,0,1.026-15.6,35.84,35.84,0,0,0-3.73-12.564,8.854,8.854,0,0,0-6.521-5.036c-5.307-.892-10.6-1.983-15.943-2.515a113.461,113.461,0,0,0-22.229.124,146.678,146.678,0,0,0-29.858,6.034C94.407,75.412,90.954,76.9,87.4,78.24m179.028,119.2c1.1-4.286,2.054-8.606,3.342-12.824a24.586,24.586,0,0,0-.061-14.727c-2.039-6.7-3.958-13.438-6.035-20.126A51.463,51.463,0,0,0,247.15,125.1a67.553,67.553,0,0,0-21.623-11.758,80.691,80.691,0,0,0-35.489-4.309c-7.532.839-14.676,2.834-21.146,6.937a44.45,44.45,0,0,0-8.048,6.609l4.116,4.531a46.276,46.276,0,0,1,4.681-2.717,32.489,32.489,0,0,1,11.567-2.443,55.068,55.068,0,0,1,20.784,3.271,95.915,95.915,0,0,1,39.9,26.088,100.5,100.5,0,0,1,22.948,40.357c.571,1.953,1.085,3.922,1.594,5.77m-235.1-68a26.081,26.081,0,0,0,7.788.682A61.791,61.791,0,0,0,58.094,126c6.81-2.582,13.543-5.367,20.324-8.026a128.589,128.589,0,0,1,23.745-7.164c2.911-.532,5.849-.918,8.859-1.383-.16-.236-.29-.467-.456-.667A126.275,126.275,0,0,0,81.823,83.275a3.4,3.4,0,0,0-4.063-.115,147.633,147.633,0,0,0-19.1,12.665,93.483,93.483,0,0,0-27.334,33.61M97.155,66.723c.143-.036.557-.137.969-.244,4.33-1.119,8.648-2.29,13-3.321a1.925,1.925,0,0,0,1.646-1.522,83.84,83.84,0,0,0,3.047-14.878,66.484,66.484,0,0,0-1.053-23.308c-1.1-4.517-2.488-8.939-5.192-12.815a6.116,6.116,0,0,0-4.385-2.752A21.23,21.23,0,0,0,95.716,9.1a113.368,113.368,0,0,1-17.907,4.16c-2.818.431-5.657.929-8.082,2.582-1.514,1.032-2.94,2.192-4.583,3.428.693.394,1.059.616,1.437.815a42.308,42.308,0,0,1,8.98,6.416A65.061,65.061,0,0,1,92.357,52c1.8,4.8,3.193,9.752,4.8,14.721m163.06,147.2a9.571,9.571,0,0,0,1.037-7.036c-2.075-9.864-4.766-19.53-9.383-28.565a92.61,92.61,0,0,0-23.251-29.664,94.3,94.3,0,0,0-20.753-13.333c-9.218-4.248-18.778-7.029-29.079-6.243a33.066,33.066,0,0,0-10.508,2.563c.262.4.484.714.687,1.043,1.081,1.754,2.209,3.483,3.209,5.281a2.5,2.5,0,0,0,1.754,1.329,116.6,116.6,0,0,1,11.85,3.366,137.335,137.335,0,0,1,31.8,17.664,122.963,122.963,0,0,1,20.408,18.526c7.382,8.445,12.922,18.123,18.485,27.778,1.355,2.352,2.488,4.832,3.742,7.289M89.972,68.927c-.225-1-.454-2.083-.711-3.157A72.2,72.2,0,0,0,77.752,40.019,45.778,45.778,0,0,0,64.808,27.548c-2.523-1.562-5.063-2.6-8.124-.989-5.74,3.017-11.605,5.8-17.4,8.709a6.52,6.52,0,0,0-3.3,3.6,2.193,2.193,0,0,0,.232,2.34,42.7,42.7,0,0,0,4.014,4.685c4.712,4.251,9.531,8.385,14.35,12.515C60.752,63.7,67.027,68.887,72.346,75.094l1.4,1.639,16.223-7.806m64.535,312.439H183.8c-1.407-16.408-4.187-32.412-9.6-48.191a29.048,29.048,0,0,1-1.128,3.121c-1.918,3.785-5.252,5.318-9.282,5.616-4.792.354-9.144-1.2-13.342-3.27-1.935-.953-3.787-2.078-5.76-3.171a250.606,250.606,0,0,1,9.817,45.9M60.195,275.521a47.275,47.275,0,0,1-4.471-12.064,3.612,3.612,0,0,0-2.212-2.737c-5.049-2.471-9.64-5.6-12.739-10.415-1.643-2.554-2.929-5.34-4.344-8.038-1.236-2.356-2.009-2.727-4.656-2.266-7.522,1.312-11.545,7.732-10.547,15.171a22.8,22.8,0,0,0,8.614,14.88c5.676,4.653,12.367,6.619,19.589,6.993a30.433,30.433,0,0,0,10.765-1.524M76.173,381.4h30.033c0-3.459.085-6.792-.018-10.118a37.326,37.326,0,0,0-5.275-18.537,27.732,27.732,0,0,0-6.963-8C84.8,355.488,80.943,368.655,76.173,381.4M31.722,47.492c-.434.745-.835,1.381-1.183,2.044-1.881,3.578-3.7,7.189-5.644,10.732a3.618,3.618,0,0,0,.148,3.98,33.278,33.278,0,0,0,9.8,10.089c7.3,5.042,15.435,8.373,23.692,11.437a1.7,1.7,0,0,0,1.277-.27c1.9-1.222,3.757-2.51,5.638-3.761.643-.428,1.314-.814,2.082-1.287-.529-.6-.909-1.1-1.364-1.525C62.221,75.247,58.338,71.5,54.3,67.921c-7.563-6.7-15.88-12.557-22.579-20.428M132.517,323.3c-3.214,2.41-6.391,4.762-9.512,7.187a1.707,1.707,0,0,0-.3,1.377c.787,4.564,1.726,9.1,2.4,13.684a2.873,2.873,0,0,0,2.222,2.614c3.052,1.091,6.095,2.226,9.077,3.494,2.908,1.237,3.2,3.456.829,5.488-1.446,1.237-2.938,2.421-4.416,3.621-1.651,1.34-3.309,2.671-5.019,4.05,3.978,5.439,7.882,10.784,11.8,16.116a1.171,1.171,0,0,0,.757.483c2.288.038,4.576.022,6.864.022-.265-12.063-8.594-45.048-14.7-58.135M227.9,106.52c-.349-.451-.566-.772-.822-1.056-2.177-2.417-4.315-4.872-6.555-7.23-3.923-4.13-8.1-8.034-13.221-10.6-5.234-2.617-10.667-4.842-16.037-7.183-3.534-1.54-7.11-2.983-10.909-4.57a37.781,37.781,0,0,1,3.229,13.287,46.447,46.447,0,0,1-.925,13.708c15.476-3.144,30.394-1.4,45.24,3.64m-96.971,274.91c-.337-.5-.542-.819-.763-1.127-2.935-4.094-5.9-8.169-8.8-12.286-2.075-2.944-1.726-5.179,1.046-7.45.461-.378.914-.764,1.377-1.138,1.4-1.131,2.8-2.259,4.258-3.43-2.351-.937-4.557-1.783-6.736-2.694a4.3,4.3,0,0,1-2.727-3.493c-.41-2.663-.8-5.33-1.19-8-.365-2.489-.722-4.979-1.1-7.621l-16.936,6.245c.943.81,1.555,1.292,2.117,1.825,5.4,5.115,8.358,11.577,10.165,18.638a73.992,73.992,0,0,1,1.93,19.125c0,.456,0,.912,0,1.4ZM120.422,61.567c1.982-.278,3.974-.521,5.947-.866a1.618,1.618,0,0,0,.976-.834,79.592,79.592,0,0,0,7.578-25.82,47.662,47.662,0,0,0-.588-15.618,1.787,1.787,0,0,0-1.315-1.5q-4.486-1.361-8.961-2.762c-1.791-.557-3.577-1.13-5.444-1.722,6.708,16.19,5.839,32.537,1.805,49.118m21.183-41.26a56.447,56.447,0,0,1-.452,20.481,81.093,81.093,0,0,1-6.023,19.392c3.049,0,5.9.013,8.748-.02a1.373,1.373,0,0,0,.889-.437c5.793-6.482,10.422-13.573,11.393-22.485.384-3.521-.163-6.786-3-9.34-3.389-3.05-7.309-5.256-11.555-7.592M71.539,197.223l-.256-.234c-.253.175-.517.337-.759.526-4.025,3.155-7.99,6.391-12.082,9.456a166.75,166.75,0,0,1-28.134,16.989q-5.677,2.714-11.362,5.41a3.77,3.77,0,0,0-2.189,2.915c-.449,2.514.392,4.8,1.146,7.234a4.351,4.351,0,0,0,.491-.365,22.164,22.164,0,0,1,12.072-6.674A47.37,47.37,0,0,0,49.647,223.7a73.247,73.247,0,0,0,17.74-19.716c1.426-2.226,2.77-4.5,4.152-6.758M20.484,70.149a3.311,3.311,0,0,0-.275.619,72.362,72.362,0,0,0-1.449,16.318,5.316,5.316,0,0,0,2.292,4.481c.922.617,1.78,1.332,2.719,1.92,5.429,3.4,11.414,5.454,17.527,7.184a1.428,1.428,0,0,0,1.092-.383C45.51,97.47,48.6,94.62,51.7,91.773a4.371,4.371,0,0,0,.428-.554,106.049,106.049,0,0,1-17.288-8.3A46.168,46.168,0,0,1,20.484,70.149M198.576,381.4c.073-.272.151-.494.189-.722.933-5.464,1.75-10.951,2.848-16.382.4-1.979-.289-2.84-1.873-3.7-2.682-1.45-5.317-3.008-7.857-4.693-2.5-1.657-2.548-3.111-.372-5.151,1.708-1.6,3.429-3.192,5.221-4.7a1.267,1.267,0,0,0,.279-1.994c-.794-1.229-1.48-2.53-2.189-3.813-1.685-3.047-3.732-5.7-7.216-6.863a8.469,8.469,0,0,1-1.054-.547c-2.033-1.017-4.067-2.03-6.279-3.133,6.346,16.8,9.126,34.134,10.978,51.691Zm-58.748-65.989c-.074,1.131-.068,2.127-.217,3.1-.416,2.714.694,4.743,2.663,6.483a45.164,45.164,0,0,0,15.539,9,18.084,18.084,0,0,0,5.35.93c2.726.057,4.236-1.7,4.09-4.4-.158-2.932-.378-5.861-.546-8.792-.12-2.083-.2-4.168-.3-6.264a160.612,160.612,0,0,1-26.582-.055m83.728,66.053c-.091-.407-.136-.713-.229-1-.67-2.112-1.339-4.225-2.027-6.331a132.558,132.558,0,0,0-9.021-22.069c-2.414-4.465-5.237-8.607-9.351-11.716-.321-.243-.675-.44-1.015-.658a50.686,50.686,0,0,0,2.33,4.7c1.151,2.238,1.037,3.036-.617,4.91a21.762,21.762,0,0,1-1.693,1.672c-.685.623-1.4,1.21-2.224,1.912.57.293.989.5,1.4.721,1.852.99,3.711,1.967,5.549,2.982A4.065,4.065,0,0,1,208.9,360.6a41.28,41.28,0,0,1-.6,5.788c-.968,4.713-.512,9.4-.076,14.107.071.769.455.966,1.175.96,3.217-.024,6.434,0,9.651,0,1.462,0,2.925,0,4.5,0m32.515-157.581c-.415,2.165-.8,4.21-1.2,6.251a55.222,55.222,0,0,0-1.126,5.658c-.409,4.5-.61,9.017-.937,13.524-.112,1.553-.347,3.1-.526,4.645l.378.212c1.522-1.944,3.2-3.79,4.538-5.853a25.364,25.364,0,0,0,4.154-18.093c-.476-3.138-2.474-5.068-5.281-6.345M55.2,229.008c-.471.283-.76.451-1.043.628-3.28,2.054-6.508,4.2-9.857,6.134-2.342,1.353-2.379,1.209-1.284,3.761,1.733,4.037,3.783,7.862,7.133,10.818,1.006.888,2.128,1.646,3.437,2.647A82.471,82.471,0,0,1,55.2,229.008m.619,55.4c6.277,5.585,13.59,9.127,21.339,11.946a71.624,71.624,0,0,1-13.658-14.1l-7.681,2.156M161.847,62.045a26.509,26.509,0,0,0-1.815-12.322L153.09,60.854l8.757,1.191m-137.063,40.2a41.106,41.106,0,0,0,9.112,8.108l2.907-3.527-12.019-4.581" transform="translate(0 0.001)" fill="#d76340"/>
    <path id="Caminho_6845" data-name="Caminho 6845" d="M406.468,900.266a22,22,0,0,1,8.54.317c7.147,2.055,11.294,6.907,12.755,14.081a20.089,20.089,0,0,1-2.794,15.506c-5.451,8.343-15.617,8.8-21.913,5.366a18.886,18.886,0,0,1-9.433-21.013,21.758,21.758,0,0,1,4.253-8.79c.193-.249.366-.511.549-.768l-.217-.251c-.867.737-1.782,1.426-2.592,2.223-1.472,1.445-2.9,2.938-4.312,4.443a3,3,0,0,1-3.353.827,7.454,7.454,0,0,1-5.447-7.465c.163-1.986,1.24-2.57,2.948-1.6,1.07.6,2.152,1.187,3.217,1.8a1.74,1.74,0,0,0,2.243-.305c1.867-1.6,3.709-3.252,5.718-4.661,5.624-3.944,11.846-6.288,18.79-6.11,10.117.257,17.541,5.055,22.452,13.828a5.47,5.47,0,0,1,.723,2.235,1.983,1.983,0,0,1-.721,1.54c-.286.187-1.157-.107-1.481-.453-1.872-2-3.518-4.22-5.5-6.091-6.125-5.779-13.379-7.577-21.555-5.65a28.753,28.753,0,0,0-2.869.994m16.423,10.917a4.715,4.715,0,0,0-4.233-4.5,4.484,4.484,0,0,0-4.365,4.307,4.6,4.6,0,0,0,4.277,4.428,4.517,4.517,0,0,0,4.32-4.234" transform="translate(-291.331 -680.833)" fill="#d76340"/>
    <path id="Caminho_6846" data-name="Caminho 6846" d="M840.726,873.284c5.294.372,8.925,3.163,11.57,7.461a19.729,19.729,0,0,1,2.66,8.311c.628,5.727-.354,11.085-4,15.72-2.773,3.521-6.259,5.854-10.906,5.9a13.6,13.6,0,0,1-13.727-12.252c-.626-6.7.158-13.231,3.29-19.317,1.778-3.456,3.937-6.619,7.254-8.817,5.2-3.444,10.792-3.775,16.637-2.119,4.047,1.146,7.292,3.613,10.332,6.381.735.669,1.353.871,2.173.239a4.977,4.977,0,0,1,.952-.487c1.94-.908,3.322-.074,3.389,2.085.075,2.437-1.334,4.157-2.911,5.771-.552.567-1.163,1.078-1.743,1.62-1.42,1.327-2.256,1.245-3.144-.459a23.6,23.6,0,0,0-4.608-6.6c-4.312-4.031-9.312-5.561-15.111-4.169a21.846,21.846,0,0,0-2.1.731m9.184,11.3a5.4,5.4,0,0,0-5.109-5.5,4.354,4.354,0,0,0-4.25,4.607,5.283,5.283,0,0,0,5.162,5.293,4.263,4.263,0,0,0,4.2-4.4" transform="translate(-629.242 -660.534)" fill="#d76340"/>
    <path id="Caminho_6847" data-name="Caminho 6847" d="M419.21,758.134c-.016,3.966-1.935,5.909-5.926,5.938a103.909,103.909,0,0,0-24.863,2.8,67.831,67.831,0,0,0-20.8,9.33,4.211,4.211,0,0,1-.4.256c-.832.428-1.7.869-2.486-.018a1.927,1.927,0,0,1,.108-2.522,48.417,48.417,0,0,1,9.49-10.592c8.153-6.781,17.624-10.515,28.006-12.075a74.228,74.228,0,0,1,9.229-.8c5.138-.122,7.659,2.516,7.638,7.678" transform="translate(-277.487 -571.607)" fill="#d76340"/>
    <path id="Caminho_6848" data-name="Caminho 6848" d="M660.087,1153.918c-6.426-.1-12.053-1.066-17.314-3.643a24.3,24.3,0,0,1-3.734-2.3c-1.521-1.124-1.816-2.612-.932-3.8s2.275-1.406,3.816-.361a26.349,26.349,0,0,0,10.88,4.214c8.054,1.251,15.891.756,23.18-3.337,1.134-.637,2.1-1.568,3.227-2.222a4.64,4.64,0,0,1,2.286-.707,2.047,2.047,0,0,1,1.77,3.215,14.8,14.8,0,0,1-3.764,3.519,34.582,34.582,0,0,1-15.872,5.16c-1.382.124-2.767.205-3.543.261" transform="translate(-485.659 -869.662)" fill="#d76340"/>
    <path id="Caminho_6849" data-name="Caminho 6849" d="M752.786,1052.963a6.89,6.89,0,0,1-5.167,6.06,2.265,2.265,0,0,1-2.819-2.465,4.73,4.73,0,0,1,.625-2.012c.774-1.261.528-2.26-.19-3.5a23.02,23.02,0,0,1-1.922-4.779,2.939,2.939,0,0,1,.355-1.927,1.736,1.736,0,0,1,2.808-.6c1.968,2.159,3.826,4.427,5.594,6.755a7.335,7.335,0,0,1,.717,2.467" transform="translate(-566.125 -794.621)" fill="#d76340"/>
  </g>
</svg>
